<svg width="450" height="450" xmlns="http://www.w3.org/2000/svg"><rect x="0" y="0" width="50" height="50" fill="white" stroke="black" stroke-width="1" /><text x="25" y="25" text-anchor="middle" alignment-baseline="middle">7</text><rect x="0" y="50" width="50" height="50" fill="white" stroke="black" stroke-width="1" /><text x="25" y="75" text-anchor="middle" alignment-baseline="middle">1</text><rect x="0" y="100" width="50" height="50" fill="white" stroke="black" stroke-width="1" /><text x="25" y="125" text-anchor="middle" alignment-baseline="middle">4</text><rect x="0" y="150" width="50" height="50" fill="white" stroke="black" stroke-width="1" /><text x="25" y="175" text-anchor="middle" alignment-baseline="middle">3</text><rect x="0" y="200" width="50" height="50" fill="white" stroke="black" stroke-width="1" /><text x="25" y="225" text-anchor="middle" alignment-baseline="middle">9</text><rect x="0" y="250" width="50" height="50" fill="white" stroke="black" stroke-width="1" /><text x="25" y="275" text-anchor="middle" alignment-baseline="middle">8</text><rect x="0" y="300" width="50" height="50" fill="white" stroke="black" stroke-width="1" /><text x="25" y="325" text-anchor="middle" alignment-baseline="middle">2</text><rect x="0" y="350" width="50" height="50" fill="white" stroke="black" stroke-width="1" /><text x="25" y="375" text-anchor="middle" alignment-baseline="middle">6</text><rect x="0" y="400" width="50" height="50" fill="white" stroke="black" stroke-width="1" /><text x="25" y="425" text-anchor="middle" alignment-baseline="middle">5</text><rect x="50" y="0" width="50" height="50" fill="white" stroke="black" stroke-width="1" /><text x="75" y="25" text-anchor="middle" alignment-baseline="middle">3</text><rect x="50" y="50" width="50" height="50" fill="white" stroke="black" stroke-width="1" /><text x="75" y="75" text-anchor="middle" alignment-baseline="middle">9</text><rect x="50" y="100" width="50" height="50" fill="white" stroke="black" stroke-width="1" /><text x="75" y="125" text-anchor="middle" alignment-baseline="middle">2</text><rect x="50" y="150" width="50" height="50" fill="white" stroke="black" stroke-width="1" /><text x="75" y="175" text-anchor="middle" alignment-baseline="middle">6</text><rect x="50" y="200" width="50" height="50" fill="white" stroke="black" stroke-width="1" /><text x="75" y="225" text-anchor="middle" alignment-baseline="middle">5</text><rect x="50" y="250" width="50" height="50" fill="white" stroke="black" stroke-width="1" /><text x="75" y="275" text-anchor="middle" alignment-baseline="middle">1</text><rect x="50" y="300" width="50" height="50" fill="white" stroke="black" stroke-width="1" /><text x="75" y="325" text-anchor="middle" alignment-baseline="middle">8</text><rect x="50" y="350" width="50" height="50" fill="white" stroke="black" stroke-width="1" /><text x="75" y="375" text-anchor="middle" alignment-baseline="middle">7</text><rect x="50" y="400" width="50" height="50" fill="white" stroke="black" stroke-width="1" /><text x="75" y="425" text-anchor="middle" alignment-baseline="middle">4</text><rect x="100" y="0" width="50" height="50" fill="white" stroke="black" stroke-width="1" /><text x="125" y="25" text-anchor="middle" alignment-baseline="middle">6</text><rect x="100" y="50" width="50" height="50" fill="white" stroke="black" stroke-width="1" /><text x="125" y="75" text-anchor="middle" alignment-baseline="middle">8</text><rect x="100" y="100" width="50" height="50" fill="white" stroke="black" stroke-width="1" /><text x="125" y="125" text-anchor="middle" alignment-baseline="middle">5</text><rect x="100" y="150" width="50" height="50" fill="white" stroke="black" stroke-width="1" /><text x="125" y="175" text-anchor="middle" alignment-baseline="middle">4</text><rect x="100" y="200" width="50" height="50" fill="white" stroke="black" stroke-width="1" /><text x="125" y="225" text-anchor="middle" alignment-baseline="middle">2</text><rect x="100" y="250" width="50" height="50" fill="white" stroke="black" stroke-width="1" /><text x="125" y="275" text-anchor="middle" alignment-baseline="middle">7</text><rect x="100" y="300" width="50" height="50" fill="white" stroke="black" stroke-width="1" /><text x="125" y="325" text-anchor="middle" alignment-baseline="middle">9</text><rect x="100" y="350" width="50" height="50" fill="white" stroke="black" stroke-width="1" /><text x="125" y="375" text-anchor="middle" alignment-baseline="middle">3</text><rect x="100" y="400" width="50" height="50" fill="white" stroke="black" stroke-width="1" /><text x="125" y="425" text-anchor="middle" alignment-baseline="middle">1</text><rect x="150" y="0" width="50" height="50" fill="white" stroke="black" stroke-width="1" /><text x="175" y="25" text-anchor="middle" alignment-baseline="middle">4</text><rect x="150" y="50" width="50" height="50" fill="white" stroke="black" stroke-width="1" /><text x="175" y="75" text-anchor="middle" alignment-baseline="middle">6</text><rect x="150" y="100" width="50" height="50" fill="white" stroke="black" stroke-width="1" /><text x="175" y="125" text-anchor="middle" alignment-baseline="middle">9</text><rect x="150" y="150" width="50" height="50" fill="white" stroke="black" stroke-width="1" /><text x="175" y="175" text-anchor="middle" alignment-baseline="middle">5</text><rect x="150" y="200" width="50" height="50" fill="white" stroke="black" stroke-width="1" /><text x="175" y="225" text-anchor="middle" alignment-baseline="middle">7</text><rect x="150" y="250" width="50" height="50" fill="white" stroke="black" stroke-width="1" /><text x="175" y="275" text-anchor="middle" alignment-baseline="middle">3</text><rect x="150" y="300" width="50" height="50" fill="white" stroke="black" stroke-width="1" /><text x="175" y="325" text-anchor="middle" alignment-baseline="middle">1</text><rect x="150" y="350" width="50" height="50" fill="white" stroke="black" stroke-width="1" /><text x="175" y="375" text-anchor="middle" alignment-baseline="middle">2</text><rect x="150" y="400" width="50" height="50" fill="white" stroke="black" stroke-width="1" /><text x="175" y="425" text-anchor="middle" alignment-baseline="middle">8</text><rect x="200" y="0" width="50" height="50" fill="white" stroke="black" stroke-width="1" /><text x="225" y="25" text-anchor="middle" alignment-baseline="middle">5</text><rect x="200" y="50" width="50" height="50" fill="white" stroke="black" stroke-width="1" /><text x="225" y="75" text-anchor="middle" alignment-baseline="middle">3</text><rect x="200" y="100" width="50" height="50" fill="white" stroke="black" stroke-width="1" /><text x="225" y="125" text-anchor="middle" alignment-baseline="middle">8</text><rect x="200" y="150" width="50" height="50" fill="white" stroke="black" stroke-width="1" /><text x="225" y="175" text-anchor="middle" alignment-baseline="middle">2</text><rect x="200" y="200" width="50" height="50" fill="white" stroke="black" stroke-width="1" /><text x="225" y="225" text-anchor="middle" alignment-baseline="middle">1</text><rect x="200" y="250" width="50" height="50" fill="white" stroke="black" stroke-width="1" /><text x="225" y="275" text-anchor="middle" alignment-baseline="middle">9</text><rect x="200" y="300" width="50" height="50" fill="white" stroke="black" stroke-width="1" /><text x="225" y="325" text-anchor="middle" alignment-baseline="middle">7</text><rect x="200" y="350" width="50" height="50" fill="white" stroke="black" stroke-width="1" /><text x="225" y="375" text-anchor="middle" alignment-baseline="middle">4</text><rect x="200" y="400" width="50" height="50" fill="white" stroke="black" stroke-width="1" /><text x="225" y="425" text-anchor="middle" alignment-baseline="middle">6</text><rect x="250" y="0" width="50" height="50" fill="white" stroke="black" stroke-width="1" /><text x="275" y="25" text-anchor="middle" alignment-baseline="middle">2</text><rect x="250" y="50" width="50" height="50" fill="white" stroke="black" stroke-width="1" /><text x="275" y="75" text-anchor="middle" alignment-baseline="middle">7</text><rect x="250" y="100" width="50" height="50" fill="white" stroke="black" stroke-width="1" /><text x="275" y="125" text-anchor="middle" alignment-baseline="middle">1</text><rect x="250" y="150" width="50" height="50" fill="white" stroke="black" stroke-width="1" /><text x="275" y="175" text-anchor="middle" alignment-baseline="middle">8</text><rect x="250" y="200" width="50" height="50" fill="white" stroke="black" stroke-width="1" /><text x="275" y="225" text-anchor="middle" alignment-baseline="middle">4</text><rect x="250" y="250" width="50" height="50" fill="white" stroke="black" stroke-width="1" /><text x="275" y="275" text-anchor="middle" alignment-baseline="middle">6</text><rect x="250" y="300" width="50" height="50" fill="white" stroke="black" stroke-width="1" /><text x="275" y="325" text-anchor="middle" alignment-baseline="middle">3</text><rect x="250" y="350" width="50" height="50" fill="white" stroke="black" stroke-width="1" /><text x="275" y="375" text-anchor="middle" alignment-baseline="middle">5</text><rect x="250" y="400" width="50" height="50" fill="white" stroke="black" stroke-width="1" /><text x="275" y="425" text-anchor="middle" alignment-baseline="middle">9</text><rect x="300" y="0" width="50" height="50" fill="white" stroke="black" stroke-width="1" /><text x="325" y="25" text-anchor="middle" alignment-baseline="middle">9</text><rect x="300" y="50" width="50" height="50" fill="white" stroke="black" stroke-width="1" /><text x="325" y="75" text-anchor="middle" alignment-baseline="middle">4</text><rect x="300" y="100" width="50" height="50" fill="white" stroke="black" stroke-width="1" /><text x="325" y="125" text-anchor="middle" alignment-baseline="middle">3</text><rect x="300" y="150" width="50" height="50" fill="white" stroke="black" stroke-width="1" /><text x="325" y="175" text-anchor="middle" alignment-baseline="middle">1</text><rect x="300" y="200" width="50" height="50" fill="white" stroke="black" stroke-width="1" /><text x="325" y="225" text-anchor="middle" alignment-baseline="middle">6</text><rect x="300" y="250" width="50" height="50" fill="white" stroke="black" stroke-width="1" /><text x="325" y="275" text-anchor="middle" alignment-baseline="middle">2</text><rect x="300" y="300" width="50" height="50" fill="white" stroke="black" stroke-width="1" /><text x="325" y="325" text-anchor="middle" alignment-baseline="middle">5</text><rect x="300" y="350" width="50" height="50" fill="white" stroke="black" stroke-width="1" /><text x="325" y="375" text-anchor="middle" alignment-baseline="middle">8</text><rect x="300" y="400" width="50" height="50" fill="white" stroke="black" stroke-width="1" /><text x="325" y="425" text-anchor="middle" alignment-baseline="middle">7</text><rect x="350" y="0" width="50" height="50" fill="white" stroke="black" stroke-width="1" /><text x="375" y="25" text-anchor="middle" alignment-baseline="middle">8</text><rect x="350" y="50" width="50" height="50" fill="white" stroke="black" stroke-width="1" /><text x="375" y="75" text-anchor="middle" alignment-baseline="middle">5</text><rect x="350" y="100" width="50" height="50" fill="white" stroke="black" stroke-width="1" /><text x="375" y="125" text-anchor="middle" alignment-baseline="middle">7</text><rect x="350" y="150" width="50" height="50" fill="white" stroke="black" stroke-width="1" /><text x="375" y="175" text-anchor="middle" alignment-baseline="middle">9</text><rect x="350" y="200" width="50" height="50" fill="white" stroke="black" stroke-width="1" /><text x="375" y="225" text-anchor="middle" alignment-baseline="middle">3</text><rect x="350" y="250" width="50" height="50" fill="white" stroke="black" stroke-width="1" /><text x="375" y="275" text-anchor="middle" alignment-baseline="middle">4</text><rect x="350" y="300" width="50" height="50" fill="white" stroke="black" stroke-width="1" /><text x="375" y="325" text-anchor="middle" alignment-baseline="middle">6</text><rect x="350" y="350" width="50" height="50" fill="white" stroke="black" stroke-width="1" /><text x="375" y="375" text-anchor="middle" alignment-baseline="middle">1</text><rect x="350" y="400" width="50" height="50" fill="white" stroke="black" stroke-width="1" /><text x="375" y="425" text-anchor="middle" alignment-baseline="middle">2</text><rect x="400" y="0" width="50" height="50" fill="white" stroke="black" stroke-width="1" /><text x="425" y="25" text-anchor="middle" alignment-baseline="middle">1</text><rect x="400" y="50" width="50" height="50" fill="white" stroke="black" stroke-width="1" /><text x="425" y="75" text-anchor="middle" alignment-baseline="middle">2</text><rect x="400" y="100" width="50" height="50" fill="white" stroke="black" stroke-width="1" /><text x="425" y="125" text-anchor="middle" alignment-baseline="middle">6</text><rect x="400" y="150" width="50" height="50" fill="white" stroke="black" stroke-width="1" /><text x="425" y="175" text-anchor="middle" alignment-baseline="middle">7</text><rect x="400" y="200" width="50" height="50" fill="white" stroke="black" stroke-width="1" /><text x="425" y="225" text-anchor="middle" alignment-baseline="middle">8</text><rect x="400" y="250" width="50" height="50" fill="white" stroke="black" stroke-width="1" /><text x="425" y="275" text-anchor="middle" alignment-baseline="middle">5</text><rect x="400" y="300" width="50" height="50" fill="white" stroke="black" stroke-width="1" /><text x="425" y="325" text-anchor="middle" alignment-baseline="middle">4</text><rect x="400" y="350" width="50" height="50" fill="white" stroke="black" stroke-width="1" /><text x="425" y="375" text-anchor="middle" alignment-baseline="middle">9</text><rect x="400" y="400" width="50" height="50" fill="white" stroke="black" stroke-width="1" /><text x="425" y="425" text-anchor="middle" alignment-baseline="middle">3</text></svg>